#!OML:ASF X:\für Bonn\!DataBase\2005_08_12_Daniel\c3d\Daniel.ASF
:FULLY-SPECIFIED
:DEGREES
152
root -19.7528 16.5642 -19.4955 -6.87333 43.7192 -719.872
lowerback 41.7451 -0.444746 -2.9669
upperback 11.5069 -1.36123 -3.94446
thorax -7.0884 -0.219428 -2.16816
lowerneck -6.23504 -2.08349 -8.18434
upperneck -4.5463 -2.17377 4.43954
head -0.215646 -0.943863 2.80672
rclavicle 4.69132e-014 7.95139e-016
rhumerus -31.7082 4.37323 -91.7333
rradius 43.2125
rwrist 3.06662
rhand -26.9455 22.8148
rfingers 7.12502
rthumb -0.367415 -7.16464
lclavicle 4.69132e-014 7.95139e-016
lhumerus -1.32735 21.502 90.7442
lradius 30.6844
lwrist -19.6454
lhand -17.9824 -7.85385
lfingers 7.12502
lthumb 8.28731 21.9636
rfemur -33.2298 0.720136 19.5676
rtibia 58.4415
rfoot -18.0642 7.98522
rtoes -13.1384
lfemur -14.9114 -2.63427 -24.5049
ltibia 60.163
lfoot -34.5984 -6.20218
ltoes -3.20498
153
root -19.675 16.5639 -19.4294 -7.00822 43.7187 -719.852
lowerback 41.636 -0.601651 -2.88998
upperback 11.5652 -1.51071 -3.91507
thorax -6.99674 -0.291231 -2.11568
lowerneck -6.44213 -2.12902 -8.11853
upperneck -4.49229 -2.22233 4.41331
head -0.160655 -0.967894 2.78226
rclavicle -1.11319e-014 1.11319e-014
rhumerus -32.0323 4.27073 -91.7078
rradius 43.1127
rwrist 3.00921
rhand -26.8211 22.9498
rfingers 7.12502
rthumb -0.247298 -7.02979
lclavicle -1.11319e-014 1.11319e-014
lhumerus -1.01808 21.4393 90.9445
lradius 30.7482
lwrist -19.5094
lhand -18.1226 -7.95929
lfingers 7.12502
lthumb 8.15198 21.8635
rfemur -33.5257 1.11606 19.6184
rtibia 56.969
rfoot -17.5877 7.44926
rtoes -13.3177
lfemur -14.2057 -2.44878 -24.5575
ltibia 59.9348
lfoot -34.8043 -6.28322
ltoes -3.27535
154
root -19.5978 16.5602 -19.3628 -7.13065 43.7209 -719.816
lowerback 41.5602 -0.744541 -2.81732
upperback 11.6011 -1.64757 -3.87665
thorax -6.93906 -0.35728 -2.05699
lowerneck -6.64868 -2.19138 -8.10135
upperneck -4.41347 -2.29076 4.41246
head -0.0955824 -1.00158 2.77497
rclavicle 6.91771e-014 -2.46493e-014
rhumerus -32.3935 4.1399 -91.6603
rradius 43.0254
rwrist 2.97787
rhand -26.7058 23.079
rfingers 7.12502
rthumb -0.135916 -6.90066
lclavicle 6.91771e-014 -2.46493e-014
lhumerus -0.781455 21.312 91.1374
lradius 30.8625
lwrist -19.3545
lhand -18.3014 -8.06438
lfingers 7.12502
lthumb 7.97942 21.765
rfemur -33.8055 1.51999 19.6438
rtibia 55.5159
rfoot -17.0492 6.88917
rtoes -13.2821
lfemur -13.521 -2.24535 -24.6042
ltibia 59.7271
lfoot -35.0084 -6.40967
ltoes -3.22185
155
root -19.519 16.5563 -19.295 -7.25685 43.723 -719.771
lowerback 41.4933 -0.890069 -2.74103
upperback 11.6296 -1.7883 -3.84571
thorax -6.89275 -0.424844 -2.00688
lowerneck -6.81895 -2.24917 -8.07442
upperneck -4.34577 -2.35659 4.42879
head -0.0403313 -1.03431 2.77204
rclavicle -2.14687e-014 -2.70347e-014
rhumerus -32.7868 4.01534 -91.6237
rradius 42.9436
rwrist 2.93775
rhand -26.6345 23.2883
rfingers 7.12502
rthumb -0.0670496 -6.69145
lclavicle -2.14687e-014 -2.70347e-014
lhumerus -0.549305 21.2371 91.3266
lradius 30.9463
lwrist -19.2364
lhand -18.4448 -8.18787
lfingers 7.12502
lthumb 7.84106 21.6467
rfemur -34.0535 1.921 19.6399
rtibia 54.0818
rfoot -16.4698 6.33005
rtoes -12.8938
lfemur -12.7971 -2.06594 -24.668
ltibia 59.512
lfoot -35.235 -6.50459
ltoes -3.2501
156
root -19.4413 16.5515 -19.2262 -7.37126 43.7296 -719.735
lowerback 41.4108 -1.04435 -2.68249
upperback 11.6717 -1.94498 -3.81381
thorax -6.82604 -0.500325 -1.94062
lowerneck -7.07344 -2.30078 -8.0245
upperneck -4.24619 -2.40951 4.41843
head 0.0379575 -1.06046 2.75526
rclavicle 9.54166e-015 1.59028e-014
rhumerus -33.126 4.01817 -91.6101
rradius 42.8563
rwrist 2.82482
rhand -26.5951 23.4295
rfingers 7.12502
rthumb -0.0289819 -6.55019
lclavicle 9.54166e-015 1.59028e-014
lhumerus -0.311872 21.1172 91.455
lradius 31.045
lwrist -19.0399
lhand -18.6355 -8.30229
lfingers 7.12502
lthumb 7.65695 21.5391
rfemur -34.3126 2.35313 19.6317
rtibia 52.684
rfoot -15.9485 5.75768
rtoes -12.3236
lfemur -12.1121 -1.86854 -24.7165
ltibia 59.3116
lfoot -35.4509 -6.55963
ltoes -3.41866
157
root -19.3627 16.5457 -19.1558 -7.49674 43.7329 -719.673
lowerback 41.3676 -1.18711 -2.62051
upperback 11.7176 -2.0873 -3.78999
thorax -6.76699 -0.567892 -1.8908
lowerneck -7.30639 -2.36854 -7.98017
upperneck -4.17035 -2.48524 4.4106
head 0.106504 -1.09777 2.73999
rclavicle 3.02153e-014 -6.83819e-014
rhumerus -33.4453 3.91735 -91.5893
rradius 42.7742
rwrist 2.76358
rhand -26.5657 23.5412
rfingers 7.12502
rthumb -0.000626228 -6.43856
lclavicle 3.02153e-014 -6.83819e-014
lhumerus -0.0783796 21.0023 91.6048
lradius 31.1317
lwrist -18.9059
lhand -18.7648 -8.41509
lfingers 7.12502
lthumb 7.53217 21.4308
rfemur -34.5228 2.79615 19.5849
rtibia 51.3224
rfoot -15.4737 5.16548
rtoes -11.5521
lfemur -11.368 -1.66101 -24.7824
ltibia 59.0973
lfoot -35.682 -6.61089
ltoes -3.52601
158
root -19.2838 16.539 -19.084 -7.62639 43.7291 -719.632
lowerback 41.341 -1.32838 -2.54835
upperback 11.7394 -2.22746 -3.76714
thorax -6.74023 -0.634531 -1.84808
lowerneck -7.54465 -2.44115 -7.93681
upperneck -4.05774 -2.56786 4.41991
head 0.188516 -1.13901 2.73029
rclavicle 1.43125e-014 4.29375e-014
rhumerus -33.7543 3.83086 -91.5785
rradius 42.644
rwrist 2.73675
rhand -26.5808 23.6537
rfingers 7.12502
rthumb -0.0152588 -6.32608
lclavicle 1.43125e-014 4.29375e-014
lhumerus 0.107554 20.8108 91.7029
lradius 31.2227
lwrist -18.721
lhand -18.9101 -8.45433
lfingers 7.12502
lthumb 7.39189 21.3965
rfemur -34.7232 3.26249 19.5456
rtibia 49.9895
rfoot -15.0681 4.57523
rtoes -10.9717
lfemur -10.6386 -1.46287 -24.8327
ltibia 58.892
lfoot -35.9229 -6.62907
ltoes -3.69409
